<?xml version="1.0" encoding="utf-8"?>
<!-- Generator: Adobe Illustrator 16.0.0, SVG Export Plug-In . SVG Version: 6.00 Build 0)  -->
<!DOCTYPE svg PUBLIC "-//W3C//DTD SVG 1.1//EN" "http://www.w3.org/Graphics/SVG/1.1/DTD/svg11.dtd">
<svg version="1.1" id="Layer_1" xmlns="http://www.w3.org/2000/svg" xmlns:xlink="http://www.w3.org/1999/xlink" x="0px" y="0px"
	 width="981.673px" height="397.719px" viewBox="0 0 981.673 397.719" enable-background="new 0 0 981.673 397.719"
	 xml:space="preserve">
<path fill="#C4FF9E" d="M342.193,188.232c0.288,0.574,0.614,1.466,0.915,2.835C342.858,189.698,342.549,188.753,342.193,188.232"/>
<path fill="#C4FF9E" d="M343.453,202.47c0.083-0.726,0.145-1.457,0.186-2.194c-0.18,1.503-0.472,3.541-0.945,6.012
	C342.957,205.04,343.21,203.769,343.453,202.47"/>
<path fill="#C4FF9E" d="M307.308,192.848v-0.019c-6.433,2.584-12.371,5.956-17.833,10.127v0.003c1.8-1.276,3.667-2.521,5.625-3.718
	C295.1,199.241,299.746,196.005,307.308,192.848"/>
<path fill="#C4FF9E" d="M248.491,296.965c1.613-0.321,3.208-0.56,4.821-0.725c1.613-0.155,3.537-0.559,5.792-1.209v-0.039
	c-3.394,0.775-6.933,1.406-10.617,1.835C248.489,296.873,248.489,296.918,248.491,296.965"/>
<path fill="#C4FF9E" d="M274.519,215.97c-2.359,2.365-4.727,5.346-7.091,8.926c2.643-3.707,5.64-7.333,9.031-10.817
	C275.826,214.684,275.182,215.31,274.519,215.97"/>
<path fill="#C4FF9E" d="M310.208,266.975l-0.004,0.096c3.52-3.528,6.892-7.304,10.118-11.326c2.493-3.121,4.896-6.685,7.204-10.684
	C323.069,252.329,317.404,259.797,310.208,266.975"/>
<path fill="#C4FF9E" d="M283.683,207.3c-0.243,0.241-0.479,0.473-0.718,0.707c0.239-0.202,0.473-0.406,0.715-0.607L283.683,207.3z"
	/>
<path fill="#C4FF9E" d="M387.809,313.351c-6.104,5.783-14.535,13.106-25.312,21.94c-10.759,8.843-22.178,16.953-34.22,24.34
	c-12.06,7.396-23.956,13.014-35.668,16.872c-11.749,3.858-21.628,3.702-29.657-0.477c-2.584-1.283-4.985-3.299-7.221-6.03
	c-2.254-2.722-4.271-6.507-6.03-11.327c-1.778-4.82-3.134-10.769-4.106-17.834c-0.953-7.066-1.283-15.744-0.953-26.036
	c3.207-0.312,7.79-1.036,13.728-2.172c5.939-1.118,12.703-3.135,20.254-6.021c7.552-2.896,15.506-6.827,23.864-11.813
	c8.358-4.977,16.313-11.483,23.864-19.521c7.533-8.037,14.37-17.761,20.492-29.171c6.085-11.4,10.759-24.981,13.966-40.735v-0.962
	c0.33-3.208,0.165-7.955-0.476-14.224c-0.641-6.269-2.731-11.162-6.269-14.7c-1.283-0.971-3.372-2.245-6.268-3.856
	c-2.896-1.605-7.075-2.411-12.537-2.411h-0.477c-4.82,0-10.282,0.65-16.386,1.924c-6.121,1.292-12.371,3.373-18.805,6.269
	c-6.434,2.896-12.867,6.507-19.282,10.851c-6.433,4.335-12.537,9.724-18.329,16.148c-6.103,6.433-11.649,15.122-17.596,25.55
	c-8.874,15.563-12.775,39.05-12.775,39.05c-10.594,67.817-2.731,108.636,23.626,122.446c6.104,3.217,13.014,4.82,20.73,4.82
	c12.207,0,25.148-3.29,38.802-9.879c13.674-6.59,26.449-13.985,38.326-22.179c11.895-8.192,22.105-16.147,30.627-23.864
	c8.505-7.716,13.894-12.536,16.148-14.461L387.809,313.351z M267.427,224.896c2.364-3.58,4.732-6.561,7.091-8.926
	c0.663-0.66,1.307-1.286,1.941-1.892c2.024-2.079,4.189-4.108,6.505-6.071c0.239-0.234,0.476-0.465,0.718-0.707l-0.003,0.1
	c1.835-1.524,3.77-3.004,5.795-4.44v-0.002c5.463-4.171,11.401-7.544,17.834-10.128v0.019c8.49-3.545,20.657-6.992,34.068-5.651
	c0,0,0.359,0.121,0.817,1.036c0.357,0.52,0.665,1.466,0.915,2.835c0.324,1.47,0.618,3.488,0.804,6.272c0,0-0.047,1.046-0.273,2.936
	c-0.041,0.737-0.103,1.469-0.186,2.194c-0.243,1.299-0.496,2.571-0.759,3.817c-1.7,8.886-5.727,23.376-15.168,38.773
	c-2.307,3.999-4.711,7.563-7.204,10.683c-3.226,4.023-6.598,7.799-10.118,11.327l0.004-0.096c-1.963,1.959-4.035,3.896-6.234,5.802
	c0,0-17.47,15.957-44.87,22.216v0.039c-2.255,0.65-4.179,1.054-5.792,1.209c-1.614,0.165-5.022,0.614-5.123,0.625
	C248.189,296.865,243.98,257.782,267.427,224.896"/>
<path fill="#C4FF9E" d="M282.964,208.007c-2.316,1.963-4.481,3.991-6.505,6.071c0.907-0.868,1.789-1.688,2.641-2.443
	C280.331,210.545,281.617,209.329,282.964,208.007"/>
<path fill="#C4FF9E" d="M343.639,200.275c0.226-1.89,0.273-2.936,0.273-2.936c-0.186-2.784-0.48-4.803-0.804-6.272
	c0.132,0.717,0.248,1.535,0.345,2.485C343.7,195.844,343.762,198.083,343.639,200.275"/>
<path fill="#C4FF9E" d="M923.997,188.232c0.288,0.574,0.614,1.466,0.916,2.835C924.662,189.698,924.353,188.753,923.997,188.232"/>
<path fill="#C4FF9E" d="M925.257,202.47c0.083-0.726,0.145-1.457,0.186-2.194c-0.18,1.503-0.473,3.541-0.945,6.012
	C924.761,205.04,925.014,203.769,925.257,202.47"/>
<path fill="#C4FF9E" d="M889.112,192.848l0.001-0.019c-6.434,2.584-12.372,5.956-17.834,10.127l-0.001,0.003
	c1.801-1.276,3.668-2.521,5.626-3.718C876.904,199.241,881.55,196.005,889.112,192.848"/>
<path fill="#C4FF9E" d="M830.295,296.965c1.612-0.321,3.207-0.56,4.82-0.725c1.612-0.155,3.536-0.559,5.792-1.209v-0.039
	c-3.394,0.775-6.934,1.406-10.617,1.835C830.292,296.873,830.293,296.918,830.295,296.965"/>
<path fill="#C4FF9E" d="M856.322,215.97c-2.358,2.365-4.727,5.346-7.091,8.926c2.644-3.707,5.641-7.333,9.03-10.817
	C857.629,214.684,856.985,215.31,856.322,215.97"/>
<path fill="#C4FF9E" d="M892.012,266.975l-0.004,0.096c3.52-3.528,6.892-7.304,10.117-11.326c2.493-3.121,4.897-6.685,7.204-10.684
	C904.874,252.329,899.208,259.797,892.012,266.975"/>
<path fill="#C4FF9E" d="M865.487,207.3c-0.243,0.241-0.48,0.473-0.719,0.707c0.238-0.202,0.473-0.406,0.715-0.607L865.487,207.3z"/>
<path fill="#C4FF9E" d="M969.613,313.351c-6.104,5.783-14.535,13.106-25.313,21.94c-10.759,8.843-22.178,16.953-34.22,24.34
	c-12.061,7.396-23.956,13.014-35.668,16.872c-11.749,3.858-21.628,3.702-29.657-0.477c-2.584-1.283-4.984-3.299-7.221-6.03
	c-2.254-2.722-4.271-6.507-6.031-11.327c-1.776-4.82-3.133-10.769-4.104-17.834c-0.953-7.066-1.283-15.744-0.953-26.036
	c3.208-0.312,7.79-1.036,13.729-2.172c5.938-1.118,12.702-3.135,20.253-6.021c7.552-2.896,15.507-6.827,23.864-11.813
	c8.358-4.977,16.313-11.483,23.864-19.521c7.533-8.037,14.37-17.761,20.492-29.171c6.085-11.4,10.759-24.981,13.967-40.735v-0.962
	c0.329-3.208,0.165-7.955-0.477-14.224s-2.731-11.162-6.269-14.7c-1.284-0.971-3.373-2.245-6.269-3.856
	c-2.896-1.605-7.075-2.411-12.537-2.411h-0.477c-4.82,0-10.282,0.65-16.386,1.924c-6.122,1.292-12.372,3.373-18.806,6.269
	c-6.434,2.896-12.867,6.507-19.282,10.851c-6.434,4.335-12.537,9.724-18.329,16.148c-6.104,6.433-11.65,15.122-17.596,25.55
	c-8.874,15.563-12.773,39.05-12.773,39.05c-10.596,67.817-2.732,108.636,23.624,122.446c6.104,3.217,13.014,4.82,20.73,4.82
	c12.207,0,25.147-3.29,38.802-9.879c13.674-6.59,26.449-13.985,38.326-22.179c11.896-8.192,22.104-16.147,30.628-23.864
	c8.504-7.716,13.892-12.536,16.147-14.461L969.613,313.351z M849.231,224.896c2.364-3.58,4.731-6.561,7.091-8.926
	c0.663-0.66,1.307-1.286,1.94-1.892c2.024-2.079,4.189-4.108,6.506-6.071c0.237-0.234,0.476-0.465,0.719-0.707l-0.004,0.1
	c1.835-1.524,3.769-3.004,5.795-4.44l0.001-0.002c5.462-4.171,11.4-7.544,17.834-10.128l-0.001,0.019
	c8.49-3.545,20.657-6.992,34.068-5.651c0,0,0.358,0.121,0.816,1.036c0.356,0.52,0.665,1.466,0.916,2.835
	c0.323,1.47,0.617,3.488,0.802,6.272c0,0-0.045,1.046-0.271,2.936c-0.041,0.737-0.104,1.469-0.186,2.194
	c-0.243,1.299-0.496,2.571-0.76,3.817c-1.699,8.886-5.727,23.376-15.168,38.773c-2.307,3.999-4.71,7.563-7.204,10.683
	c-3.226,4.023-6.598,7.799-10.117,11.327l0.004-0.096c-1.964,1.959-4.036,3.896-6.233,5.802c0,0-17.472,15.957-44.871,22.216v0.039
	c-2.255,0.65-4.18,1.054-5.792,1.209c-1.614,0.165-5.022,0.614-5.122,0.625C829.994,296.865,825.785,257.782,849.231,224.896"/>
<path fill="#C4FF9E" d="M864.768,208.007c-2.316,1.963-4.481,3.991-6.506,6.071c0.908-0.868,1.789-1.688,2.642-2.443
	C862.134,210.545,863.421,209.329,864.768,208.007"/>
<path fill="#C4FF9E" d="M925.443,200.275c0.226-1.89,0.271-2.936,0.271-2.936c-0.185-2.784-0.479-4.803-0.802-6.272
	c0.131,0.717,0.247,1.535,0.345,2.485C925.503,195.844,925.566,198.083,925.443,200.275"/>
<path fill="#C4FF9E" d="M636.415,195.725c-1.136,3.858-2.017,7.882-2.657,12.052v6.507c0,0.889,0.036,1.755,0.094,2.61
	c0.381-7.742,1.426-15.647,3.332-23.569C636.916,194.089,636.659,194.884,636.415,195.725"/>
<path fill="#C4FF9E" d="M733.406,241.912c0.273,0.434,0.549,0.871,0.824,1.315C734.005,242.739,733.726,242.305,733.406,241.912"/>
<path fill="#C4FF9E" d="M650.638,298.89c0.96,2.018,1.936,3.977,2.923,5.887c-0.644-1.263-1.618-3.245-2.804-5.864L650.638,298.89z"
	/>
<path fill="#C4FF9E" d="M728.243,234.289c-0.106-0.133-0.213-0.263-0.319-0.396c0.104,0.144,0.209,0.286,0.314,0.43L728.243,234.289
	z"/>
<path fill="#C4FF9E" d="M674.246,335.528l0.175,0.026c-2.473-2.766-4.901-5.703-7.258-8.829
	C669.431,329.779,671.79,332.717,674.246,335.528"/>
<path fill="#C4FF9E" d="M654.791,307.118c-0.122-0.233-0.247-0.461-0.369-0.696C654.544,306.654,654.667,306.888,654.791,307.118"/>
<path fill="#C4FF9E" d="M666.957,326.446c-0.266-0.354-0.529-0.716-0.793-1.074C666.425,325.733,666.691,326.088,666.957,326.446"/>
<path fill="#C4FF9E" d="M780.553,244.654c-0.808-32.938-4.271-64.114-10.374-93.523c-6.104-29.408-13.967-56.884-23.607-82.434
	C736.93,43.146,726.794,20.244,716.201,0l-15.433,7.717c8.027,15.744,15.909,33.102,23.625,52.063
	c7.718,18.971,14.535,39.288,20.492,60.98c5.938,21.691,10.594,44.521,13.967,68.459c3.372,23.946,4.747,48.772,4.104,74.479
	c-1.612-5.132-3.463-9.879-5.553-14.223c-2.09-4.335-4.252-8.432-6.507-12.29c-6.104-10.603-13.087-19.923-20.968-27.96
	c-7.882-8.028-15.91-14.947-24.104-20.73c-8.192-5.782-16.221-10.438-24.102-13.984c-7.882-3.528-15.177-6.095-21.939-7.708
	c-4.491-0.962-8.358-1.447-11.566-1.447c-4.18,0-7.387,0.485-9.641,1.447c-2.254,0.963-4.014,1.77-5.297,2.411
	c-2.896,1.612-5.389,4.096-7.479,7.469c-2.089,3.372-3.775,6.992-5.059,10.851s-2.254,7.469-2.896,10.842
	c-0.642,3.381-1.137,5.874-1.448,7.478v0.963c-0.312,24.753,1.924,46.362,6.745,64.838c4.82,18.484,11.162,34.549,19.043,48.205
	c7.882,13.664,16.718,25.074,26.522,34.229c9.806,9.164,19.521,16.56,29.16,22.178c9.642,5.627,18.642,9.962,26.998,13.014
	c8.359,3.061,14.939,5.067,19.76,6.03c2.32,0.449,15.433,2.41,15.433,2.41l1.925-7.23c4.508-14.783,7.551-29.244,9.165-43.395
	C778.225,311.747,781.341,277.601,780.553,244.654 M751.386,375.472c0,0-0.634,3.804-7.605,1.902c0,0-38.304-7.082-69.36-41.819
	l-0.175-0.026c-2.457-2.812-4.815-5.749-7.084-8.803c-0.068-0.092-0.135-0.188-0.205-0.279c-0.264-0.358-0.531-0.713-0.793-1.074
	c-4.049-5.506-7.879-11.571-11.373-18.255c-0.123-0.229-0.246-0.463-0.369-0.695c-0.008-0.016-0.016-0.031-0.025-0.048
	c0,0-0.305-0.556-0.835-1.598c-0.987-1.91-1.963-3.869-2.923-5.887l0.119,0.022c-6.36-14.06-18.665-46.29-16.906-82.019
	c-0.058-0.855-0.094-1.722-0.094-2.61v-6.507c0.643-4.17,1.521-8.193,2.656-12.052c0.244-0.841,0.502-1.636,0.769-2.4
	c0.034-0.141,0.063-0.281,0.099-0.422c0,0,2.535-11.411,12.043-10.144c0,0,33.6,3.17,62.76,33.599c0,0,7.236,5.867,15.84,17.536
	c0.107,0.133,0.213,0.263,0.318,0.396l-0.004,0.033c1.688,2.309,3.424,4.838,5.168,7.59c0.321,0.393,0.599,0.827,0.824,1.315
	c9.066,14.666,18.104,35.31,20.96,61.879C755.19,305.106,756.458,342.508,751.386,375.472"/>
<path fill="#C4FF9E" d="M667.163,326.726c-0.067-0.093-0.138-0.187-0.206-0.279C667.025,326.539,667.093,326.634,667.163,326.726"/>
<path fill="#C4FF9E" d="M654.396,306.374c0.009,0.017,0.018,0.032,0.025,0.048c-0.289-0.544-0.575-1.092-0.86-1.646
	C654.091,305.818,654.396,306.374,654.396,306.374"/>
<path fill="#C4FF9E" d="M654.791,307.118c3.495,6.683,7.324,12.748,11.373,18.254c-1.523-2.104-3.003-4.262-4.436-6.477
	C659.351,315.246,657.038,311.318,654.791,307.118"/>
<path fill="#C4FF9E" d="M104.289,361.525c0.202-0.308,0.398-0.609,0.599-0.916c-0.207,0.302-0.412,0.593-0.614,0.879
	C104.283,361.511,104.289,361.525,104.289,361.525"/>
<path fill="#C4FF9E" d="M230.193,173.07c-0.66-2.245-2.09-4.179-4.344-5.792l-1.925-1.438h-2.419
	c-1.521,0.052-3.065,0.163-4.625,0.322c-2.467,9.205-6.726,18.498-6.726,18.498s-29.409,60.063-104.369,174.578
	c-0.086,0.155-0.162,0.286-0.228,0.385c-0.225,0.338-0.448,0.666-0.669,0.985c-0.201,0.307-0.397,0.608-0.599,0.916
	c0,0-0.006-0.015-0.015-0.037c-3.207,4.524-5.69,7.011-5.69,7.011C97.95,353.284,80.2,309.544,80.2,309.544l-0.463-1.767
	c-8.812-21.611-17.562-40.812-26.234-57.579c-9.477-18.319-17.432-33.578-23.865-45.794c-1.283-2.566-2.731-5.463-4.325-8.679
	c-1.613-3.208-3.135-6.425-4.583-9.642c-1.448-3.207-2.657-6.03-3.629-8.44c-0.953-2.41-1.613-3.932-1.924-4.573
	c-2.567,2.246-4.821,4.335-6.745,6.27c-1.614,1.603-3.3,3.125-5.059,4.572c-1.778,1.448-2.823,2.337-3.135,2.657
	c-1.282,1.605-1.924,2.649-1.924,3.126c0,0.485,0.55,1.292,1.686,2.419c1.118,1.127,2.97,3.208,5.536,6.259
	c2.566,3.062,5.627,7.801,9.164,14.224c4.821,8.679,10.448,19.282,16.863,31.819c6.433,12.537,13.178,26.595,20.253,42.184
	s14.15,32.626,21.207,51.101c7.075,18.485,13.508,38.326,19.282,59.532l8.687-2.41l2.896-0.477l4.821-1.447
	c-0.66-1.933-0.972-3.373-0.972-4.345l2.42-4.334c20.565-32.13,37.904-59.615,52.054-82.435
	c14.15-22.818,25.624-41.944,34.477-57.369c8.834-15.424,15.671-27.723,20.491-36.878c4.821-9.165,8.193-16.147,10.118-20.969
	c1.924-4.82,2.969-8.119,3.134-9.888C230.596,174.922,230.505,173.712,230.193,173.07"/>
<path fill="#C4FF9E" d="M105.557,359.624c0.066-0.099,0.143-0.229,0.228-0.385c-0.299,0.457-0.596,0.911-0.896,1.37
	C105.109,360.29,105.332,359.962,105.557,359.624"/>
<path fill="#C4FF9E" d="M494.387,263.846c0.132-0.064,0.256-0.128,0.386-0.193c0.269-0.529,0.975-1.907,2.059-3.926
	C496.089,261.054,495.282,262.424,494.387,263.846"/>
<path fill="#C4FF9E" d="M531.382,210.445c-3.16,2.554-6.016,5.571-8.549,9.054l0.114,0.254
	C525.673,216.438,528.498,213.283,531.382,210.445"/>
<path fill="#C4FF9E" d="M498.493,256.615c-0.192,0.38-0.399,0.771-0.604,1.16c0.896-1.636,1.963-3.547,3.176-5.656
	C500.101,253.622,499.239,255.123,498.493,256.615"/>
<path fill="#C4FF9E" d="M549.354,257.504l-0.031-0.009L549.354,257.504z"/>
<path fill="#C4FF9E" d="M587.919,207.448c-5.48-17.999-14.314-27.796-26.521-29.409c-9-0.962-17.834,1.128-26.504,6.269
	c-8.688,5.142-17.045,12.134-25.073,20.969c-8.047,8.844-15.598,19.043-22.655,30.608c-7.075,11.575-13.508,23.067-19.282,34.478
	c-5.792,11.409-10.85,22.251-15.195,32.533c-4.343,10.292-7.643,18.806-9.879,25.551c-1.613-6.745-2.896-15.103-3.849-25.064
	c-0.971-9.962-0.971-21.288,0-33.991c0.953-12.693,3.134-26.669,6.507-41.937c3.372-15.259,8.431-31.893,15.176-49.892
	l-17.834-7.239c-9.329,24.111-15.671,46.28-19.043,66.533c-3.373,20.244-4.821,38.646-4.344,55.197
	c0.494,16.552,2.492,31.096,6.03,43.624c3.537,12.536,7.313,23.222,11.327,32.065c4.014,8.835,7.955,15.662,11.822,20.482
	c3.849,4.82,6.58,7.882,8.193,9.165l9.641-12.537c-0.33-0.321-2.107-2.566-5.315-6.755c-3.208-4.169-6.58-11.4-10.118-21.691
	c2.896-7.387,6.672-16.46,11.327-27.237c4.656-10.759,9.715-21.766,15.195-33.02c11.236-10.282,22.416-17.513,33.505-21.692
	c11.089-4.179,21.757-4.499,32.058-0.962c3.52,1.283,6.745,2.575,9.641,3.848c2.896,1.294,5.297,2.412,7.222,3.383
	c2.254,1.283,4.179,2.41,5.792,3.373c0.953,0.65,2.4,1.851,4.344,3.61c1.926,1.778,3.923,2.979,6.012,3.62
	c2.09,0.65,4.271,0.403,6.506-0.724c2.256-1.118,4.016-4.097,5.316-8.917C593.381,250.191,593.381,225.447,587.919,207.448
	 M572.621,270.24c0,0-10.014-9.456-23.268-12.736l-0.029-0.009c-0.885-0.218-1.783-0.408-2.694-0.567c0,0-19.651-5.071-51.982,6.974
	c0,0,0.045-0.091,0.126-0.249c-0.131,0.066-0.255,0.128-0.386,0.193c0.894-1.422,1.702-2.792,2.444-4.119
	c0.322-0.598,0.673-1.247,1.058-1.951c0.205-0.389,0.412-0.78,0.604-1.16c0.746-1.492,1.608-2.993,2.572-4.496
	c5.147-8.949,12.967-21.52,21.883-32.366l-0.115-0.254c2.534-3.482,5.391-6.5,8.548-9.054c7.707-7.587,15.823-12.928,23.489-13.105
	c0,0,14.58-2.536,19.018,39.937C573.888,237.276,575.156,255.66,572.621,270.24"/>
<path fill="#C4FF9E" d="M496.832,259.727c0.371-0.662,0.722-1.313,1.058-1.951C497.504,258.479,497.153,259.129,496.832,259.727"/>
</svg>
